# xmcd
#
# Track frame offsets:
#	150
#	13185
#	25280
#	36193
#	48995
#	59740
#	72973
#	84876
#	103569
#	132577
#	146578
#	157640
#	169227
#	181010
#	192151
#	203325
#	215525
#	229800
#	242183
#	253032
#	265193
#	276177
#	289761
#	307465
#
# Disc length: 4395 seconds
#
# Revision: 0
# Processed by: cddbd v1.5.1PL2 Copyright (c) Steve Scherf et al.
# Submitted via: dBpowerAMP V4.0
#
DISCID=60112918
DTITLE=Wilson Pickett - Greatest Hits
DYEAR=1900
DGENRE=
TTITLE0=A man and a half
TTITLE1=Bad people
TTITLE2=Don't knock my love
TTITLE3=Don't let the green grass fool you
TTITLE4=Everybody needs somebody to love
TTITLE5=Funk factory
TTITLE6=Funky broadway
TTITLE7=Hey jude
TTITLE8=Get me back on time engine
TTITLE9=Hold on,I'm comin
TTITLE10=Ifound a true love
TTITLE11=I'm in love
TTITLE12=In the midnight hour
TTITLE13=I'm a midnight mover
TTITLE14=Land of thousand dances
TTITLE15=Mama told me not to come
TTITLE16=Mustang sally
TTITLE17=Ninety-nine and one-half won't do
TTITLE18=She's looking good
TTITLE19=Soul dance number  three
TTITLE20=Stagger lee
TTITLE21=Sugar sugar
TTITLE22=Taxi love
TTITLE23=You keep me hanging on
EXTD=
EXTT0=
EXTT1=
EXTT2=
EXTT3=
EXTT4=
EXTT5=
EXTT6=
EXTT7=
EXTT8=
EXTT9=
EXTT10=
EXTT11=
EXTT12=
EXTT13=
EXTT14=
EXTT15=
EXTT16=
EXTT17=
EXTT18=
EXTT19=
EXTT20=
EXTT21=
EXTT22=
EXTT23=
PLAYORDER=
